<?xml version="1.0" encoding="utf-8"?>
<!-- Generator: Adobe Illustrator 22.0.1, SVG Export Plug-In . SVG Version: 6.00 Build 0)  -->
<svg version="1.1" id="Ebene_1" xmlns="http://www.w3.org/2000/svg" xmlns:xlink="http://www.w3.org/1999/xlink" x="0px" y="0px"
	 viewBox="0 0 122 85.6" style="enable-background:new 0 0 122 85.6;" xml:space="preserve">
<style type="text/css">
	.st0{fill:#9D9D9C;}
	.st1{fill:#CE0E2D;}
</style>
<path class="st0" d="M69.2,11.4c-5.5,1.2-11.3,2-16.9,2.7l-0.6,0.1v1.7l0.3,0c4,0.3,5.9,2.1,5.9,5.6V44c0,4.4-1.1,7.1-6.9,7.4
	l-0.3,0v1.8l13-0.3l13,0.3l0-0.3v-1.5l-0.3,0c-5.7-0.3-6.9-3-6.9-7.4V11.3L69.2,11.4z"/>
<path class="st1" d="M120.3,78.2c2.3,0.9,2.3,2.5-0.3,3.7c-2.6,1.2-7.2,0.1-10.5-0.5c-12.7-2.1-28.1-3.4-48.4-2.4
	c-22.2,1.1-39.2,3-57.3,6.3C-0.8,86.2-1,84.3,2,83.4c18.2-5.3,36.5-8.9,60.1-10.3C85.2,71.8,106.8,73,120.3,78.2z"/>
<g>
	<path d="M92.3,32.6c0.7,10.2-7.2,30.5-29.2,30.5c-15.5,0-28.4-9.9-28.4-28.7c0-18.9,11-31.2,29.4-31.2c8.3,0,16.5,3.2,21.7,9
		C91.1,18.3,92.3,24.8,92.3,32.6z M62.8,66.1c23.2,0,39.7-13.6,39.7-34.3C102.5,9.5,82.6,0,63,0C41.4,0,24.5,12.8,24.5,33.2
		C24.5,53.1,39.8,66.1,62.8,66.1z"/>
</g>
</svg>
